<mxfile host="65bd71144e">
    <diagram id="vzCHUzRNWFV38FMub_HX" name="Page-1">
        <mxGraphModel dx="1068" dy="773" grid="1" gridSize="10" guides="1" tooltips="1" connect="1" arrows="1" fold="1" page="1" pageScale="1" pageWidth="1169" pageHeight="827" math="0" shadow="0">
            <root>
                <mxCell id="0"/>
                <mxCell id="1" parent="0"/>
                <mxCell id="4" value="YES" style="edgeStyle=none;html=1;fontSize=20;exitX=1;exitY=0.5;exitDx=0;exitDy=0;entryX=0;entryY=0.5;entryDx=0;entryDy=0;" parent="1" source="22" target="93" edge="1">
                    <mxGeometry relative="1" as="geometry">
                        <mxPoint x="713.5" y="250" as="sourcePoint"/>
                        <mxPoint x="860" y="213" as="targetPoint"/>
                    </mxGeometry>
                </mxCell>
                <mxCell id="14" style="edgeStyle=none;html=1;entryX=1;entryY=0.5;entryDx=0;entryDy=0;fontSize=15;" parent="1" source="2" target="19" edge="1">
                    <mxGeometry relative="1" as="geometry">
                        <mxPoint x="713.5" y="50" as="targetPoint"/>
                    </mxGeometry>
                </mxCell>
                <mxCell id="2" value="&lt;font style=&quot;font-size: 20px;&quot;&gt;Boot&lt;/font&gt;" style="rounded=1;whiteSpace=wrap;html=1;fillColor=#60a917;fontColor=#ffffff;strokeColor=#2D7600;" parent="1" vertex="1">
                    <mxGeometry x="840" y="60" width="120" height="60" as="geometry"/>
                </mxCell>
                <mxCell id="8" value="" style="edgeStyle=none;html=1;fontSize=20;exitX=-0.022;exitY=0.463;exitDx=0;exitDy=0;exitPerimeter=0;entryX=1;entryY=0.5;entryDx=0;entryDy=0;" parent="1" source="96" target="20" edge="1">
                    <mxGeometry relative="1" as="geometry">
                        <mxPoint x="783.5" y="323.5" as="sourcePoint"/>
                        <mxPoint x="750" y="300" as="targetPoint"/>
                    </mxGeometry>
                </mxCell>
                <mxCell id="9" style="edgeStyle=none;html=1;entryX=0.5;entryY=0;entryDx=0;entryDy=0;fontSize=20;exitX=0.5;exitY=1;exitDx=0;exitDy=0;" parent="1" source="64" target="83" edge="1">
                    <mxGeometry relative="1" as="geometry">
                        <mxPoint x="820" y="647" as="sourcePoint"/>
                        <mxPoint x="666" y="640" as="targetPoint"/>
                    </mxGeometry>
                </mxCell>
                <mxCell id="10" value="Yes" style="edgeLabel;html=1;align=center;verticalAlign=middle;resizable=0;points=[];fontSize=20;" parent="9" vertex="1" connectable="0">
                    <mxGeometry x="-0.2857" y="-3" relative="1" as="geometry">
                        <mxPoint as="offset"/>
                    </mxGeometry>
                </mxCell>
                <mxCell id="45" style="edgeStyle=none;html=1;entryX=0;entryY=0.5;entryDx=0;entryDy=0;fontSize=14;" parent="1" source="11" target="83" edge="1">
                    <mxGeometry relative="1" as="geometry">
                        <mxPoint x="606" y="670" as="targetPoint"/>
                        <Array as="points">
                            <mxPoint x="450" y="670"/>
                        </Array>
                    </mxGeometry>
                </mxCell>
                <mxCell id="11" value="&lt;span style=&quot;font-size: 14px;&quot;&gt;Log missing device and don't try to initialize or read it.&lt;/span&gt;" style="whiteSpace=wrap;html=1;rounded=1;fillColor=#e3c800;fontColor=#000000;strokeColor=#B09500;" parent="1" vertex="1">
                    <mxGeometry x="380" y="507" width="140" height="80" as="geometry"/>
                </mxCell>
                <mxCell id="16" style="edgeStyle=none;html=1;entryX=0.5;entryY=0;entryDx=0;entryDy=0;fontSize=15;exitX=0.5;exitY=1;exitDx=0;exitDy=0;" parent="1" source="19" target="22" edge="1">
                    <mxGeometry relative="1" as="geometry">
                        <mxPoint x="713.5" y="110" as="sourcePoint"/>
                        <mxPoint x="713.5" y="150" as="targetPoint"/>
                    </mxGeometry>
                </mxCell>
                <mxCell id="17" value="NO" style="edgeStyle=none;html=1;fontSize=20;exitX=0;exitY=0.5;exitDx=0;exitDy=0;entryX=1;entryY=0.5;entryDx=0;entryDy=0;" parent="1" source="22" target="23" edge="1">
                    <mxGeometry x="-0.2308" relative="1" as="geometry">
                        <mxPoint x="661" y="200" as="sourcePoint"/>
                        <mxPoint x="596" y="200" as="targetPoint"/>
                        <mxPoint as="offset"/>
                    </mxGeometry>
                </mxCell>
                <mxCell id="19" value="Sanity check: verify all external systems connectivity" style="whiteSpace=wrap;html=1;rounded=1;fillColor=#60a917;fontColor=#ffffff;strokeColor=#2D7600;" parent="1" vertex="1">
                    <mxGeometry x="653.5" y="60" width="120" height="60" as="geometry"/>
                </mxCell>
                <mxCell id="54" value="" style="edgeStyle=none;html=1;entryX=1;entryY=0.5;entryDx=0;entryDy=0;fontSize=14;" parent="1" source="20" target="11" edge="1">
                    <mxGeometry x="-0.7225" y="-50" relative="1" as="geometry">
                        <mxPoint y="1" as="offset"/>
                        <Array as="points">
                            <mxPoint x="580" y="327"/>
                            <mxPoint x="580" y="547"/>
                        </Array>
                    </mxGeometry>
                </mxCell>
                <mxCell id="69" value="YES" style="edgeStyle=none;html=1;exitX=1;exitY=1;exitDx=0;exitDy=0;entryX=0;entryY=0;entryDx=0;entryDy=0;fontSize=17;" parent="1" source="20" target="59" edge="1">
                    <mxGeometry relative="1" as="geometry"/>
                </mxCell>
                <mxCell id="20" value="&lt;span style=&quot;font-size: 15px;&quot;&gt;Is Radio available?&lt;/span&gt;" style="rhombus;whiteSpace=wrap;html=1;rounded=1;fillColor=#1ba1e2;fontColor=#ffffff;strokeColor=#006EAF;" parent="1" vertex="1">
                    <mxGeometry x="613.5" y="277" width="105" height="100" as="geometry"/>
                </mxCell>
                <mxCell id="61" style="edgeStyle=none;html=1;entryX=0.5;entryY=0;entryDx=0;entryDy=0;exitX=0.5;exitY=1;exitDx=0;exitDy=0;" parent="1" source="96" target="59" edge="1">
                    <mxGeometry relative="1" as="geometry">
                        <mxPoint x="845.7185628742513" y="350" as="sourcePoint"/>
                    </mxGeometry>
                </mxCell>
                <mxCell id="22" value="&lt;font style=&quot;font-size: 15px;&quot;&gt;Systems&lt;br&gt;OK?&lt;/font&gt;" style="rhombus;whiteSpace=wrap;html=1;rounded=1;fillColor=#1ba1e2;fontColor=#ffffff;strokeColor=#006EAF;" parent="1" vertex="1">
                    <mxGeometry x="666" y="150" width="95" height="100" as="geometry"/>
                </mxCell>
                <mxCell id="29" style="edgeStyle=none;html=1;entryX=1;entryY=0.5;entryDx=0;entryDy=0;fontSize=20;" parent="1" source="23" target="33" edge="1">
                    <mxGeometry relative="1" as="geometry">
                        <mxPoint x="436" y="200" as="targetPoint"/>
                    </mxGeometry>
                </mxCell>
                <mxCell id="23" value="&lt;font style=&quot;font-size: 14px;&quot;&gt;Enter Error Handler and halt system&lt;/font&gt;" style="whiteSpace=wrap;html=1;rounded=1;fillColor=#e51400;fontColor=#ffffff;strokeColor=#B20000;" parent="1" vertex="1">
                    <mxGeometry x="476" y="170" width="120" height="60" as="geometry"/>
                </mxCell>
                <mxCell id="31" style="edgeStyle=none;html=1;fontSize=20;entryX=0;entryY=0.5;entryDx=0;entryDy=0;" parent="1" source="32" target="33" edge="1">
                    <mxGeometry relative="1" as="geometry">
                        <mxPoint x="356" y="20" as="targetPoint"/>
                        <Array as="points">
                            <mxPoint x="276" y="100"/>
                            <mxPoint x="276" y="200"/>
                        </Array>
                    </mxGeometry>
                </mxCell>
                <mxCell id="32" value="Flash error code through LCD/Display error code on screen" style="whiteSpace=wrap;html=1;rounded=1;fillColor=#e51400;fontColor=#ffffff;strokeColor=#B20000;" parent="1" vertex="1">
                    <mxGeometry x="316" y="70" width="120" height="60" as="geometry"/>
                </mxCell>
                <mxCell id="34" style="edgeStyle=none;html=1;entryX=0.5;entryY=1;entryDx=0;entryDy=0;fontSize=20;" parent="1" source="33" target="32" edge="1">
                    <mxGeometry relative="1" as="geometry"/>
                </mxCell>
                <mxCell id="33" value="&lt;font style=&quot;font-size: 14px;&quot;&gt;Handle UART debug commands&lt;/font&gt;" style="whiteSpace=wrap;html=1;rounded=1;fillColor=#f0a30a;fontColor=#000000;strokeColor=#BD7000;" parent="1" vertex="1">
                    <mxGeometry x="316" y="170" width="120" height="60" as="geometry"/>
                </mxCell>
                <mxCell id="36" value="Legend" style="swimlane;whiteSpace=wrap;html=1;fontSize=20;" parent="1" vertex="1">
                    <mxGeometry x="30" y="20" width="200" height="410" as="geometry"/>
                </mxCell>
                <mxCell id="35" value="&lt;font style=&quot;font-size: 17px;&quot;&gt;Normal execution path&lt;/font&gt;" style="rounded=1;whiteSpace=wrap;html=1;fontSize=20;fillColor=#60a917;fontColor=#ffffff;strokeColor=#2D7600;" parent="36" vertex="1">
                    <mxGeometry x="20" y="40" width="160" height="60" as="geometry"/>
                </mxCell>
                <mxCell id="37" value="&lt;font style=&quot;font-size: 17px;&quot;&gt;Error handling path&lt;/font&gt;" style="rounded=1;whiteSpace=wrap;html=1;fontSize=20;fillColor=#e3c800;fontColor=#000000;strokeColor=#B09500;" parent="36" vertex="1">
                    <mxGeometry x="20" y="110" width="160" height="60" as="geometry"/>
                </mxCell>
                <mxCell id="38" value="&lt;font style=&quot;font-size: 17px;&quot;&gt;System Failure path&lt;/font&gt;" style="rounded=1;whiteSpace=wrap;html=1;fontSize=20;fillColor=#e51400;fontColor=#ffffff;strokeColor=#B20000;" parent="36" vertex="1">
                    <mxGeometry x="20" y="180" width="160" height="60" as="geometry"/>
                </mxCell>
                <mxCell id="39" value="&lt;font style=&quot;font-size: 17px;&quot;&gt;Decision&lt;/font&gt;" style="rounded=1;whiteSpace=wrap;html=1;fontSize=20;fillColor=#1ba1e2;fontColor=#ffffff;strokeColor=#006EAF;" parent="36" vertex="1">
                    <mxGeometry x="20" y="250" width="160" height="60" as="geometry"/>
                </mxCell>
                <mxCell id="40" value="&lt;font style=&quot;font-size: 17px;&quot;&gt;Debug command interface tasks&lt;/font&gt;" style="rounded=1;whiteSpace=wrap;html=1;fontSize=20;fillColor=#f0a30a;fontColor=#000000;strokeColor=#BD7000;" parent="36" vertex="1">
                    <mxGeometry x="20" y="320" width="160" height="60" as="geometry"/>
                </mxCell>
                <mxCell id="47" value="&lt;font style=&quot;font-size: 15px;&quot;&gt;Normal mode loop&lt;/font&gt;" style="whiteSpace=wrap;html=1;rounded=1;fillColor=#60a917;fontColor=#ffffff;strokeColor=#2D7600;" parent="1" vertex="1">
                    <mxGeometry x="954" y="640" width="120" height="60" as="geometry"/>
                </mxCell>
                <mxCell id="62" style="edgeStyle=none;html=1;entryX=0.5;entryY=0;entryDx=0;entryDy=0;" parent="1" source="59" target="60" edge="1">
                    <mxGeometry relative="1" as="geometry"/>
                </mxCell>
                <mxCell id="65" style="edgeStyle=none;html=1;entryX=1;entryY=0.5;entryDx=0;entryDy=0;" parent="1" source="59" target="63" edge="1">
                    <mxGeometry relative="1" as="geometry"/>
                </mxCell>
                <mxCell id="59" value="&lt;font style=&quot;font-size: 15px;&quot;&gt;Check for connected anemometer&lt;/font&gt;" style="whiteSpace=wrap;html=1;rounded=1;fillColor=#60a917;fontColor=#ffffff;strokeColor=#2D7600;" parent="1" vertex="1">
                    <mxGeometry x="783.5" y="407" width="120" height="60" as="geometry"/>
                </mxCell>
                <mxCell id="66" style="edgeStyle=none;html=1;entryX=1;entryY=0.5;entryDx=0;entryDy=0;" parent="1" source="60" target="64" edge="1">
                    <mxGeometry relative="1" as="geometry"/>
                </mxCell>
                <mxCell id="60" value="&lt;font style=&quot;font-size: 15px;&quot;&gt;Check for connected thermometer&lt;/font&gt;" style="whiteSpace=wrap;html=1;rounded=1;fillColor=#60a917;fontColor=#ffffff;strokeColor=#2D7600;" parent="1" vertex="1">
                    <mxGeometry x="783.5" y="517" width="120" height="60" as="geometry"/>
                </mxCell>
                <mxCell id="68" value="&lt;font style=&quot;font-size: 17px;&quot;&gt;NO&lt;/font&gt;" style="edgeStyle=none;html=1;exitX=0;exitY=0.5;exitDx=0;exitDy=0;entryX=1;entryY=0.5;entryDx=0;entryDy=0;" parent="1" source="63" target="11" edge="1">
                    <mxGeometry x="0.7052" y="-20" relative="1" as="geometry">
                        <mxPoint x="550" y="547" as="targetPoint"/>
                        <Array as="points">
                            <mxPoint x="580" y="437"/>
                            <mxPoint x="580" y="547"/>
                        </Array>
                        <mxPoint x="1" as="offset"/>
                    </mxGeometry>
                </mxCell>
                <mxCell id="70" value="YES" style="edgeStyle=none;html=1;exitX=1;exitY=1;exitDx=0;exitDy=0;entryX=0;entryY=0;entryDx=0;entryDy=0;fontSize=17;" parent="1" source="63" target="60" edge="1">
                    <mxGeometry relative="1" as="geometry"/>
                </mxCell>
                <mxCell id="63" value="&lt;span style=&quot;font-size: 15px;&quot;&gt;Is ANM available?&lt;/span&gt;" style="rhombus;whiteSpace=wrap;html=1;rounded=1;fillColor=#1ba1e2;fontColor=#ffffff;strokeColor=#006EAF;" parent="1" vertex="1">
                    <mxGeometry x="613.5" y="387" width="105" height="100" as="geometry"/>
                </mxCell>
                <mxCell id="67" style="edgeStyle=none;html=1;entryX=1;entryY=0.5;entryDx=0;entryDy=0;" parent="1" source="64" target="11" edge="1">
                    <mxGeometry relative="1" as="geometry">
                        <mxPoint x="550" y="547" as="targetPoint"/>
                    </mxGeometry>
                </mxCell>
                <mxCell id="64" value="&lt;span style=&quot;font-size: 15px;&quot;&gt;Is THM available?&lt;/span&gt;" style="rhombus;whiteSpace=wrap;html=1;rounded=1;fillColor=#1ba1e2;fontColor=#ffffff;strokeColor=#006EAF;" parent="1" vertex="1">
                    <mxGeometry x="613.5" y="497" width="105" height="100" as="geometry"/>
                </mxCell>
                <mxCell id="74" value="" style="shape=curlyBracket;whiteSpace=wrap;html=1;rounded=1;flipH=1;labelPosition=right;verticalLabelPosition=middle;align=left;verticalAlign=middle;fontSize=17;size=0.5;" parent="1" vertex="1">
                    <mxGeometry x="910" y="297" width="60" height="280" as="geometry"/>
                </mxCell>
                <mxCell id="76" value="This checks should be done independently from their results, but any failed check should be logged and missing device should be probed periodicaly in background." style="text;html=1;strokeColor=none;fillColor=none;align=center;verticalAlign=middle;whiteSpace=wrap;rounded=0;fontSize=17;" parent="1" vertex="1">
                    <mxGeometry x="960" y="369.5" width="200" height="140.5" as="geometry"/>
                </mxCell>
                <mxCell id="86" value="YES" style="edgeStyle=none;html=1;fontSize=17;entryX=0;entryY=0.5;entryDx=0;entryDy=0;" parent="1" source="81" target="89" edge="1">
                    <mxGeometry relative="1" as="geometry">
                        <mxPoint x="954" y="770" as="targetPoint"/>
                        <Array as="points">
                            <mxPoint x="825" y="770"/>
                        </Array>
                    </mxGeometry>
                </mxCell>
                <mxCell id="92" value="NO" style="edgeStyle=none;html=1;entryX=0;entryY=0.5;entryDx=0;entryDy=0;fontSize=15;" parent="1" source="81" target="47" edge="1">
                    <mxGeometry relative="1" as="geometry"/>
                </mxCell>
                <mxCell id="81" value="&lt;span style=&quot;font-size: 15px;&quot;&gt;Is &lt;br&gt;DBG mode active?&lt;/span&gt;" style="rhombus;whiteSpace=wrap;html=1;rounded=1;fillColor=#1ba1e2;fontColor=#ffffff;strokeColor=#006EAF;arcSize=22;" parent="1" vertex="1">
                    <mxGeometry x="770" y="615" width="110" height="110" as="geometry"/>
                </mxCell>
                <mxCell id="85" style="edgeStyle=none;html=1;entryX=0;entryY=0.5;entryDx=0;entryDy=0;fontSize=17;" parent="1" source="83" target="81" edge="1">
                    <mxGeometry relative="1" as="geometry"/>
                </mxCell>
                <mxCell id="83" value="&lt;font style=&quot;font-size: 15px;&quot;&gt;Check if DBG mode switch is ON&lt;/font&gt;" style="whiteSpace=wrap;html=1;rounded=1;fillColor=#60a917;fontColor=#ffffff;strokeColor=#2D7600;" parent="1" vertex="1">
                    <mxGeometry x="606" y="640" width="120" height="60" as="geometry"/>
                </mxCell>
                <mxCell id="89" value="&lt;font style=&quot;font-size: 15px;&quot;&gt;Enter debug mode and handle UART cmds&lt;/font&gt;" style="rounded=1;whiteSpace=wrap;html=1;fontSize=20;fillColor=#f0a30a;fontColor=#000000;strokeColor=#BD7000;" parent="1" vertex="1">
                    <mxGeometry x="934" y="740" width="160" height="60" as="geometry"/>
                </mxCell>
                <mxCell id="97" style="edgeStyle=none;html=1;entryX=0.5;entryY=0;entryDx=0;entryDy=0;fontSize=15;" parent="1" source="93" target="96" edge="1">
                    <mxGeometry relative="1" as="geometry">
                        <Array as="points">
                            <mxPoint x="890" y="250"/>
                            <mxPoint x="850" y="270"/>
                        </Array>
                    </mxGeometry>
                </mxCell>
                <mxCell id="93" value="&lt;font style=&quot;font-size: 15px;&quot;&gt;Init all external chips on board&lt;/font&gt;" style="whiteSpace=wrap;html=1;rounded=1;fillColor=#60a917;fontColor=#ffffff;strokeColor=#2D7600;" parent="1" vertex="1">
                    <mxGeometry x="830" y="170" width="120" height="60" as="geometry"/>
                </mxCell>
                <mxCell id="96" value="&lt;font style=&quot;font-size: 15px;&quot;&gt;Check Radio for listening server&lt;/font&gt;" style="whiteSpace=wrap;html=1;rounded=1;fillColor=#60a917;fontColor=#ffffff;strokeColor=#2D7600;" parent="1" vertex="1">
                    <mxGeometry x="783.5" y="300.5" width="120" height="53" as="geometry"/>
                </mxCell>
            </root>
        </mxGraphModel>
    </diagram>
</mxfile>